<?xml version="1.0" standalone="no"?>
<!DOCTYPE svg PUBLIC "-//W3C//DTD SVG 20010904//EN"
 "http://www.w3.org/TR/2001/REC-SVG-20010904/DTD/svg10.dtd">
<svg version="1.0" xmlns="http://www.w3.org/2000/svg"
 width="258.000000pt" height="300.000000pt" viewBox="0 0 258.000000 300.000000"
 preserveAspectRatio="xMidYMid meet">

<g transform="translate(0.000000,300.000000) scale(0.100000,-0.100000)"
fill="#000000" stroke="none">
<path fill="#03a655" d="M198 2991 c10 -6 -9 -29 -75 -85 -48 -42 -90 -71 -92 -65 -1 5 4 18
13 28 9 10 13 21 9 24 -8 9 24 45 62 68 17 11 25 19 18 19 -22 0 -86 -64 -104
-105 -17 -36 -19 -71 -19 -317 0 -152 4 -279 8 -282 9 -5 142 75 142 86 0 4
-30 -13 -67 -37 -37 -24 -69 -42 -71 -40 -12 12 12 35 72 71 36 21 66 45 66
53 0 12 -2 12 -12 -1 -7 -9 -39 -32 -70 -52 -49 -31 -58 -34 -58 -19 0 17 108
93 131 93 5 0 9 5 9 11 0 10 -42 -12 -102 -53 -31 -21 -38 -22 -38 -5 0 6 32
32 70 56 38 25 68 46 66 49 -3 2 -32 -15 -65 -37 -66 -45 -71 -47 -71 -28 0 7
31 33 70 57 38 25 70 49 70 53 0 4 -15 -3 -32 -16 -64 -47 -108 -69 -108 -55
0 10 43 43 139 105 2 2 2 5 0 8 -3 2 -27 -12 -55 -31 -70 -51 -84 -57 -84 -41
0 13 113 97 131 97 5 0 9 5 9 11 0 12 -8 8 -70 -36 -61 -43 -70 -48 -70 -36 0
5 31 31 70 58 38 26 70 52 70 56 0 5 -12 -1 -27 -12 -77 -59 -113 -81 -112
-69 0 7 31 36 69 63 38 28 70 54 70 58 0 5 -29 -14 -64 -42 -69 -55 -76 -58
-76 -37 0 8 31 36 70 63 38 26 70 54 70 62 0 9 -6 7 -17 -6 -31 -35 -123 -96
-123 -81 0 7 15 23 33 36 40 28 117 97 97 86 -8 -4 -39 -28 -68 -52 -29 -25
-55 -42 -59 -38 -4 3 -2 10 3 14 5 5 35 33 67 62 42 39 60 51 66 41 6 -9 10
-7 14 8 7 30 50 44 98 31 21 -6 41 -15 44 -20 3 -5 6 -106 5 -223 0 -118 3
-216 6 -220 6 -6 114 61 114 71 0 4 -27 -12 -75 -45 -23 -15 -35 -17 -35 -3 0
14 134 101 138 89 2 -5 -2 -17 -10 -26 -7 -9 -8 -14 -1 -10 7 5 11 -4 11 -27
0 -32 -5 -38 -61 -71 -33 -20 -66 -34 -73 -31 -8 3 -14 -5 -16 -22 -2 -21 -11
-30 -38 -38 -33 -11 -33 -12 -10 -16 17 -2 43 8 80 33 71 47 120 72 120 61 0
-5 -54 -43 -120 -86 -66 -43 -122 -82 -126 -87 -3 -5 46 24 108 64 148 96 141
92 136 74 -3 -18 -261 -187 -284 -187 -8 0 -13 4 -10 9 3 4 -7 6 -22 4 -26 -4
-26 -4 -7 12 11 9 29 23 40 31 27 20 -3 6 -38 -18 -15 -11 -25 -23 -22 -28 3
-4 34 -13 69 -20 l64 -12 37 -79 37 -79 58 0 c61 0 74 7 64 34 -5 14 -9 13
-31 -4 -26 -21 -53 -26 -53 -12 0 5 15 17 34 27 l34 19 -20 50 c-33 83 -33 83
11 131 35 38 53 75 36 75 -8 0 -85 -52 -85 -57 0 -3 16 5 35 17 29 18 35 19
35 6 0 -8 -36 -38 -80 -67 -44 -28 -80 -53 -80 -56 0 -5 14 3 53 30 16 10 31
16 35 12 7 -6 -9 -21 -54 -53 -11 -7 -3 -4 18 7 48 26 57 14 16 -22 l-33 -29
32 21 c17 12 33 21 35 21 6 0 31 -81 26 -84 -2 -1 -20 -14 -40 -29 -25 -19
-39 -24 -44 -16 -4 7 1 18 12 26 48 35 58 43 44 37 -8 -4 -27 -16 -42 -26 -23
-16 -28 -17 -28 -4 0 8 16 24 35 36 19 12 35 24 35 26 0 6 -14 -2 -51 -27 -28
-20 -46 -15 -27 8 9 11 7 12 -7 7 -15 -6 -17 -3 -13 14 4 12 2 20 -3 16 -5 -3
-9 2 -9 10 0 9 -4 16 -10 16 -24 0 -6 22 45 56 30 20 55 39 55 41 0 5 -12 -2
-83 -50 -32 -21 -61 -36 -64 -33 -8 8 -16 2 121 90 65 41 123 73 127 70 5 -3
9 60 9 140 0 80 -4 146 -9 146 -5 0 -14 -7 -21 -14 -18 -23 -110 -79 -117 -73
-3 4 -1 13 6 21 9 11 9 15 0 18 -11 4 109 98 125 98 20 0 -1 -24 -49 -55 -30
-21 -55 -39 -55 -42 0 -3 12 3 27 12 14 10 41 26 59 37 l32 19 1 110 c1 67 -2
108 -8 105 -5 -3 -7 -14 -4 -25 3 -13 -13 -32 -60 -70 -70 -55 -77 -58 -77
-37 0 7 17 25 39 40 21 15 49 39 62 53 13 14 -2 5 -34 -20 -62 -50 -70 -55
-65 -34 4 16 113 107 128 107 35 0 -16 111 -67 146 l-32 21 -53 -49 c-60 -57
-96 -83 -104 -76 -2 3 27 31 66 64 38 32 70 62 70 66 0 10 -47 10 -52 0 -1 -4
-41 -40 -88 -79 -47 -39 -98 -86 -115 -104 -23 -26 -19 -24 15 8 107 98 220
186 220 169 0 -4 -239 -219 -276 -249 -22 -17 -23 -17 -22 13 1 26 17 44 101
118 56 48 114 99 131 114 l31 27 -50 1 c-31 0 -45 -3 -37 -9z m57 -10 c-6 -5
-29 -25 -51 -43 -23 -18 -74 -62 -113 -97 -40 -35 -71 -57 -71 -49 0 19 207
198 228 198 10 0 12 -3 7 -9z m140 -37 c19 -15 19 -17 -28 -60 -64 -58 -105
-62 -54 -5 21 24 21 24 -11 -2 -58 -46 -58 -17 -1 34 60 53 65 55 94 33z m-5
-84 c-41 -36 -70 -50 -70 -34 0 3 21 25 48 49 31 29 50 40 57 34 7 -7 -5 -24
-35 -49z m69 -19 c-1 -21 -122 -116 -128 -100 -4 12 17 34 89 93 19 15 28 25
20 20 -8 -4 -34 -23 -58 -42 -64 -52 -66 -28 -2 28 49 44 56 47 68 33 6 -9 12
-24 11 -32z m11 -121 c0 -10 -118 -100 -132 -100 -19 0 -3 18 55 62 64 49 77
55 77 38z m0 -40 c0 -5 -26 -27 -57 -48 -78 -52 -83 -55 -83 -44 0 10 119 101
133 102 4 0 7 -4 7 -10z m-2 -42 c-5 -13 -117 -97 -130 -98 -25 -1 1 31 55 67
66 44 81 51 75 31z m2 -112 c0 -12 -116 -96 -133 -96 -21 0 0 24 56 63 68 50
77 54 77 33z m-10 -167 c-92 -56 -130 -76 -130 -69 0 12 133 91 140 83 3 -3
-2 -9 -10 -14z m-15 -399 c-3 -5 -11 -10 -16 -10 -6 0 -7 5 -4 10 3 6 11 10
16 10 6 0 7 -4 4 -10z"/>
<path fill="#03a655" d="M354 2918 l-19 -23 23 19 c21 18 27 26 19 26 -2 0 -12 -10 -23 -22z"/>
<path fill="#03a655" d="M928 2993 l-28 -4 0 -335 c0 -265 3 -334 13 -328 6 4 38 25 70 47 32
21 61 37 63 34 3 -3 -15 -19 -40 -37 -59 -40 -59 -47 -1 -12 40 24 64 56 52
68 -3 3 -34 -15 -70 -41 -67 -47 -77 -51 -77 -36 0 5 31 29 70 53 71 44 88 68
75 107 -6 20 -9 19 -63 -17 -78 -52 -82 -55 -82 -43 0 6 27 29 60 51 33 22 60
43 60 46 0 2 -24 -11 -52 -31 -54 -36 -68 -41 -68 -26 0 10 122 97 133 93 4
-1 7 19 7 44 l0 46 -66 -47 c-36 -26 -68 -44 -71 -41 -4 3 -4 7 -2 9 82 64
128 95 133 90 3 -4 6 11 6 33 0 27 -3 35 -9 25 -5 -8 -7 -20 -5 -26 3 -7 -19
-30 -48 -52 -76 -57 -77 -58 -76 -24 1 25 12 38 69 78 l68 48 1 67 0 67 -32
-30 c-63 -59 -108 -91 -107 -77 0 12 94 98 129 118 8 5 12 11 9 15 -3 3 -35
-20 -70 -51 -41 -37 -65 -52 -67 -44 -3 8 6 22 19 33 48 38 119 108 119 116 0
18 -56 24 -122 14z m42 -11 c0 -5 -13 -18 -29 -29 l-28 -22 0 25 c0 17 4 23
13 20 7 -3 16 -1 19 4 7 12 25 13 25 2z m63 -2 c13 0 -34 -50 -84 -91 l-36
-29 -1 28 c0 20 11 37 41 64 23 21 48 35 55 33 8 -3 19 -5 25 -5z m6 -134 c-2
-1 -26 -20 -54 -42 -61 -49 -75 -58 -75 -46 0 15 125 113 129 101 1 -5 1 -11
0 -13z m-34 -63 c-67 -59 -98 -78 -94 -60 5 18 120 110 128 101 3 -3 -12 -22
-34 -41z m35 3 c0 -11 -72 -73 -119 -101 -34 -20 -1 19 54 64 69 57 65 55 65
37z m-5 -155 c-12 -21 -125 -92 -125 -79 1 7 29 32 63 55 59 40 77 47 62 24z
m5 -21 c0 -5 -24 -27 -52 -48 -69 -50 -78 -55 -78 -43 0 5 28 30 63 54 72 52
67 50 67 37z m10 -109 c0 -5 -16 -19 -35 -31 -19 -12 -35 -24 -35 -27 0 -3 12
2 26 11 14 10 30 16 37 13 6 -2 -20 -25 -58 -50 -39 -26 -72 -42 -74 -36 -1 5
5 17 15 25 17 12 17 13 2 8 -38 -13 -15 16 45 55 64 42 77 48 77 32z"/>
<path fill="#03a655" d="M960 2935 c-24 -25 -42 -45 -39 -45 3 0 25 20 49 45 24 25 42 45 39
45 -3 0 -25 -20 -49 -45z"/>
<path fill="#03a655" d="M149 2968 c-12 -23 -12 -23 10 -4 23 21 26 26 11 26 -5 0 -15 -10
-21 -22z"/>
<path fill="#03a655" d="M585 2978 c-3 -7 -4 -130 -3 -272 l3 -258 73 56 c39 31 72 50 72 43
0 -6 -23 -27 -50 -46 -28 -19 -56 -41 -63 -50 -6 -8 10 0 36 19 27 19 51 38
53 42 7 11 24 10 24 -2 0 -11 -114 -90 -129 -90 -6 0 -11 -8 -11 -17 0 -11 3
-14 8 -7 4 6 36 30 70 53 49 33 63 39 60 25 -1 -10 -33 -36 -71 -58 -37 -23
-67 -45 -67 -50 0 -5 8 -2 18 6 39 33 122 77 122 65 0 -14 -117 -94 -131 -89
-15 4 -10 -78 6 -113 19 -39 76 -99 84 -88 10 14 120 93 138 100 16 6 15 3 -2
-17 l-20 -24 21 15 c37 25 130 112 107 100 -13 -6 -34 -23 -48 -37 -22 -22
-33 -25 -71 -22 -24 2 -44 0 -44 -3 0 -3 -25 -23 -56 -43 -58 -39 -85 -42 -43
-5 l24 21 -25 -16 c-27 -18 -40 -20 -40 -7 0 11 110 84 117 77 3 -3 0 -14 -8
-23 -12 -17 -12 -17 5 -2 14 13 16 21 7 36 -6 13 -11 145 -13 354 l-3 334 -73
3 c-53 2 -74 -1 -77 -10z m58 -12 c-3 -6 0 -5 8 2 7 6 17 12 22 12 4 0 5 -6 1
-12 -6 -9 -3 -9 9 0 11 9 21 11 33 4 14 -8 12 -14 -17 -48 -23 -27 -26 -32 -7
-16 l26 23 6 -26 c6 -23 -2 -37 -55 -96 -54 -62 -79 -81 -79 -63 0 3 30 40 66
83 l66 76 -61 -64 c-67 -72 -91 -79 -34 -10 l37 44 -36 -33 -35 -33 1 53 c0
29 5 59 10 67 6 9 5 12 -1 8 -6 -4 -10 3 -10 16 0 19 5 23 28 23 17 0 26 -4
22 -10z m87 -130 c0 -15 -131 -138 -139 -131 -5 5 121 143 132 144 4 1 7 -5 7
-13z m-59 -109 c-33 -32 -61 -62 -61 -65 0 -4 25 18 55 48 30 29 58 50 62 46
7 -7 -113 -126 -127 -126 -3 0 -6 13 -5 29 0 23 14 42 65 89 83 76 93 58 11
-21z m59 -16 c0 -5 -29 -36 -65 -70 -36 -33 -62 -61 -57 -61 4 0 30 23 57 50
27 28 53 50 57 50 21 0 2 -25 -56 -72 -36 -29 -63 -55 -60 -57 2 -2 29 18 59
44 55 47 81 53 56 13 -8 -13 -9 -18 -1 -13 8 5 11 1 8 -11 -4 -20 -126 -120
-135 -110 -4 3 4 18 18 34 13 15 17 21 9 15 -23 -21 -28 -15 -28 35 0 45 3 50
62 104 60 56 76 67 76 49z m0 -310 c0 -5 -10 -16 -22 -25 l-23 -17 23 11 c13
7 22 7 22 1 0 -8 -110 -81 -122 -81 -3 0 -5 9 -4 21 1 13 21 34 56 59 58 40
70 45 70 31z m0 -61 c0 -15 -107 -83 -122 -78 -7 3 16 24 52 46 73 47 70 46
70 32z m5 -29 c3 -6 -21 -28 -54 -50 -33 -23 -62 -37 -66 -32 -3 6 21 28 52
50 68 47 60 43 68 32z m65 -65 c0 -8 -112 -86 -122 -86 -20 0 -1 21 47 54 45
31 75 44 75 32z"/>
<path fill="#03a655" d="M659 2913 l-24 -28 28 24 c25 23 32 31 24 31 -2 0 -14 -12 -28 -27z"/>
<path fill="#03a655" d="M614 2858 l-19 -23 23 19 c21 18 27 26 19 26 -2 0 -12 -10 -23 -22z"/>
<path fill="#03a655" d="M659 2553 l-24 -28 28 24 c25 23 32 31 24 31 -2 0 -14 -12 -28 -27z"/>
<path fill="#03a655" d="M647 2341 c-41 -26 -46 -36 -10 -17 17 9 35 20 38 26 8 13 6 12 -28
-9z"/>
<path fill="#03a655" d="M1196 2981 c-4 -5 -3 -16 0 -25 5 -14 9 -13 31 4 32 25 50 26 32 3
-13 -17 -13 -17 7 0 43 36 46 15 3 -25 -47 -45 -32 -35 34 20 l38 32 -70 0
c-38 0 -72 -4 -75 -9z m29 -11 c-3 -5 -11 -10 -16 -10 -6 0 -7 5 -4 10 3 6 11
10 16 10 6 0 7 -4 4 -10z"/>
<path fill="#03a655" d="M1466 2959 c-3 -17 -3 -49 0 -70 l7 -39 138 0 c86 0 139 -4 139 -10
0 -12 -28 -72 -168 -365 -98 -205 -106 -225 -110 -292 l-4 -73 95 0 c80 0 99
3 119 20 68 57 160 121 170 118 6 -2 -22 -30 -63 -62 -78 -61 -88 -73 -65 -73
8 0 14 4 13 8 -1 5 31 35 71 69 67 54 92 69 92 55 0 -6 -64 -65 -116 -106 -20
-16 -32 -29 -26 -29 6 0 37 24 68 53 68 63 93 81 101 73 3 -3 -23 -33 -58 -65
l-64 -60 66 -1 c66 0 67 0 71 29 4 29 4 29 -19 13 -12 -10 -23 -20 -23 -24 0
-5 -8 -8 -17 -8 -13 0 -6 12 25 40 47 45 45 40 32 74 l-9 25 -133 -1 -133 0 2
23 c1 13 26 76 56 139 30 63 71 153 92 200 21 47 58 125 82 174 34 71 43 100
43 142 l0 54 -234 0 -233 0 -7 -31z m57 -15 c-21 -18 -42 -33 -48 -33 -5 0 6
13 25 29 19 17 29 30 23 30 -6 0 -16 -7 -23 -15 -7 -8 -17 -15 -22 -15 -7 0
-6 5 1 13 6 8 9 16 6 19 -2 2 13 5 36 5 l40 1 -38 -34z m22 -20 l-60 -56 67
57 c88 74 111 67 26 -8 -69 -60 -85 -67 -95 -41 -4 12 9 30 43 60 72 64 89 53
19 -12z m83 -4 c-82 -77 -111 -78 -33 0 33 32 68 59 78 60 12 0 -4 -20 -45
-60z m144 41 c-11 -9 -45 -36 -76 -59 -30 -24 -61 -42 -67 -40 -7 2 15 26 49
53 57 44 68 55 58 55 -2 0 -34 -25 -72 -55 -38 -30 -73 -55 -79 -55 -5 1 18
27 53 60 58 54 66 58 109 57 43 0 44 -1 25 -16z m14 -32 c-36 -28 -66 -54 -66
-56 0 -3 6 -1 13 4 6 5 39 31 73 56 33 26 69 47 80 47 25 0 48 -15 41 -27 -13
-21 -156 -113 -161 -104 -4 5 29 35 71 65 43 31 74 56 69 56 -7 0 -137 -89
-146 -101 -3 -3 -26 -6 -52 -7 l-47 0 72 58 c41 33 82 59 96 59 19 1 11 -9
-43 -50z m135 -13 c-14 -16 -156 -116 -166 -116 -19 0 8 25 80 74 79 55 108
69 86 42z m9 -25 c0 -13 -200 -155 -207 -147 -9 9 -2 15 102 90 91 66 105 73
105 57z m-34 -66 c-9 -14 -13 -25 -10 -25 4 0 -1 -9 -12 -21 -10 -11 -19 -26
-20 -32 0 -7 -2 -17 -2 -23 -2 -11 -195 -154 -208 -154 -4 0 0 8 9 18 16 17
17 21 17 46 0 8 35 38 78 67 91 62 138 99 123 99 -5 0 -13 -5 -16 -10 -11 -17
-156 -112 -162 -106 -8 7 33 43 127 110 84 61 100 67 76 31z m-92 -182 c-16
-13 -62 -45 -101 -70 -40 -26 -71 -48 -69 -51 3 -2 41 21 86 52 45 31 84 56
86 56 3 0 0 -8 -5 -19 -12 -22 -191 -134 -200 -125 -3 3 2 10 11 15 10 5 15
16 12 23 -4 9 28 37 90 81 53 36 99 71 103 78 5 8 8 7 11 -3 3 -7 -8 -24 -24
-37z m-35 -99 c-7 -9 -14 -21 -15 -28 -6 -43 -45 -82 -128 -128 -48 -27 -90
-48 -92 -46 -8 9 18 29 99 72 48 26 87 50 87 53 0 2 -38 -16 -85 -42 -102 -55
-104 -37 -2 22 39 23 81 49 92 59 19 15 19 15 -5 2 -94 -55 -142 -80 -146 -75
-7 7 48 48 130 96 70 41 90 45 65 15z m-59 -134 c0 -5 -10 -14 -21 -21 -14 -7
-18 -14 -11 -18 19 -11 0 -27 -88 -72 -109 -56 -104 -54 -93 -34 5 9 45 36 89
61 43 24 75 44 70 44 -5 0 -38 -16 -73 -36 -36 -20 -67 -34 -70 -31 -5 6 12
18 112 75 76 44 85 47 85 32z m-47 -96 c-7 -20 -183 -108 -183 -92 0 9 163
103 187 108 1 0 0 -7 -4 -16z m-15 -46 c-2 -6 -41 -31 -86 -55 -63 -34 -82
-41 -82 -29 0 10 30 31 78 55 83 43 96 47 90 29z m22 -22 c0 -2 -40 -28 -90
-57 -49 -29 -88 -55 -86 -57 2 -2 33 15 69 37 148 90 206 105 72 17 -41 -27
-75 -50 -75 -53 0 -5 10 1 95 57 93 62 93 62 99 52 3 -5 -32 -34 -77 -64 -77
-51 -87 -56 -138 -54 -81 2 -74 26 26 81 72 39 105 52 105 41z m140 -3 c-1
-15 -162 -124 -178 -121 -11 3 14 25 73 65 91 62 105 69 105 56z m88 -78 c-26
-25 -53 -45 -60 -45 -15 1 82 90 97 90 6 0 -11 -21 -37 -45z m32 -35 c0 -5 -5
-10 -11 -10 -5 0 -7 5 -4 10 3 6 8 10 11 10 2 0 4 -4 4 -10z"/>
<path fill="#03a655" d="M1757 2680 c-49 -39 -86 -70 -82 -70 8 0 175 129 175 136 0 7 -3 5
-93 -66z"/>
<path fill="#03a655" d="M2026 2981 c-3 -4 7 -6 22 -4 25 4 25 3 7 -8 -11 -7 -21 -13 -23 -15
-3 -2 35 -83 44 -93 2 -2 28 18 58 43 35 31 57 43 61 36 4 -7 3 -15 -1 -19
-66 -54 -103 -79 -109 -73 -9 9 2 -30 24 -80 l16 -37 53 41 c53 42 64 42 76 2
5 -18 0 -26 -29 -44 -19 -12 -35 -24 -35 -27 0 -2 16 5 36 17 19 12 38 19 42
15 4 -3 0 -10 -9 -15 -9 -5 -27 -19 -40 -30 l-24 -22 30 19 c50 32 55 35 55
24 0 -12 -101 -83 -108 -76 -3 3 1 11 8 20 11 13 10 14 -4 9 -19 -7 -21 7 -3
25 10 10 9 11 -5 6 -33 -13 -18 12 27 44 25 18 45 35 45 37 0 3 -22 -10 -49
-30 -26 -20 -52 -32 -56 -28 -10 8 -7 0 31 -91 22 -52 30 -64 35 -50 6 16 209
172 269 207 49 29 -42 -49 -142 -121 -65 -47 -118 -87 -118 -90 0 -8 226 152
236 168 3 5 10 9 16 9 6 0 1 -12 -13 -26 -36 -39 -220 -177 -235 -177 -9 0
-10 -5 -3 -18 5 -10 9 -107 9 -217 l0 -200 25 -4 c14 -3 28 -1 31 4 3 4 28 20
56 34 35 18 48 30 44 40 -3 9 -6 18 -6 20 0 2 -22 -7 -50 -21 -63 -32 -65 -41
-4 -14 26 11 49 17 52 14 7 -6 7 -6 -52 -38 -60 -34 -81 -34 -84 -4 -1 19 8
28 48 47 28 13 48 25 46 27 -2 3 -22 -5 -45 -16 -22 -12 -42 -21 -45 -21 -8 0
-3 44 7 58 6 7 6 12 0 12 -6 0 -10 13 -11 29 0 20 6 32 21 40 l22 11 -22 -6
c-49 -12 -20 19 47 49 67 31 69 33 69 67 0 19 -3 29 -6 22 -3 -7 -31 -26 -64
-42 -64 -33 -69 -34 -69 -21 0 9 113 81 128 81 11 0 95 201 87 208 -3 3 -5 0
-5 -6 0 -7 -31 -35 -70 -63 -38 -28 -70 -53 -70 -55 0 -3 25 13 57 35 31 23
58 39 60 37 11 -11 -18 -37 -95 -88 -90 -60 -122 -68 -62 -16 l35 30 -33 -22
c-18 -12 -36 -19 -39 -16 -4 3 -4 7 -2 9 48 34 136 101 177 135 28 24 52 41
52 36 1 -15 20 23 45 91 29 77 31 78 -90 -13 -44 -33 -81 -60 -82 -58 -1 1 0
11 3 23 4 13 39 41 90 72 46 29 84 54 84 58 0 3 -10 -1 -22 -9 -65 -43 -126
-78 -135 -78 -6 0 -17 -19 -26 -42 -9 -23 -19 -39 -23 -36 -3 4 -16 31 -28 62
l-23 56 -57 -41 c-32 -23 -60 -38 -64 -34 -10 10 67 70 115 90 2 1 -9 32 -22
70 -14 37 -25 70 -25 71 0 8 -159 3 -164 -5z m159 -13 c3 -3 -19 -26 -49 -52
-38 -32 -57 -43 -62 -34 -5 7 9 26 37 50 24 21 41 38 37 38 -4 0 -23 -14 -43
-31 -20 -18 -39 -28 -43 -24 -4 3 6 18 21 31 15 13 24 24 19 24 -5 0 -17 -9
-27 -20 -10 -11 -22 -17 -28 -13 -22 14 38 42 85 39 26 -1 50 -5 53 -8z m25
-67 c0 -5 -23 -28 -51 -50 -29 -23 -48 -41 -43 -41 4 0 17 8 28 19 12 10 33
26 49 36 22 14 27 15 27 3 0 -14 -97 -94 -105 -87 -2 2 -6 16 -10 30 -6 23 0
31 42 62 50 38 63 43 63 28z m274 -90 c-10 -11 -79 -63 -153 -115 -91 -66
-138 -93 -145 -86 -5 5 -8 11 -5 13 21 17 99 67 106 67 4 0 53 33 108 74 94
68 133 89 89 47z m-95 -253 c-13 -22 -15 -28 -18 -47 -1 -6 -85 -62 -133 -88
-5 -2 -8 2 -8 11 0 8 29 31 65 51 36 20 65 38 65 41 0 3 -30 -12 -66 -32 -37
-21 -65 -32 -63 -26 4 12 161 122 167 117 2 -2 -2 -14 -9 -27z m-29 -131 c0
-7 -29 -27 -65 -45 -43 -21 -65 -27 -65 -19 0 9 102 70 128 76 1 1 2 -5 2 -12z"/>
<path fill="#03a655" d="M2399 2964 c-13 -35 -9 -37 21 -13 15 11 18 17 8 13 -10 -3 -18 -2
-18 4 0 5 16 10 35 9 l35 -1 -27 -23 c-16 -12 -38 -26 -50 -29 -13 -3 -23 -10
-23 -15 0 -11 23 0 86 42 32 22 52 29 69 25 36 -9 23 -26 -67 -81 -103 -64
-102 -64 -95 -29 6 27 5 27 -9 -5 -8 -18 -13 -36 -10 -38 3 -3 46 20 96 51 82
51 113 60 75 22 -8 -8 -11 -17 -6 -20 8 -5 51 84 51 105 0 5 -36 9 -80 9 -78
0 -81 -1 -91 -26z"/>
<path fill="#03a655" d="M1305 2935 l-40 -35 37 22 c20 13 39 29 42 36 7 17 6 16 -39 -23z"/>
<path fill="#03a655" d="M2461 2926 c-62 -44 -90 -67 -61 -51 39 22 140 95 133 95 -5 0 -37
-20 -72 -44z"/>
<path fill="#03a655" d="M94 2918 l-29 -33 33 29 c30 28 37 36 29 36 -2 0 -16 -15 -33 -32z"/>
<path fill="#03a655" d="M1220 2935 c-7 -8 -16 -12 -21 -9 -10 6 -13 -489 -3 -499 6 -6 91 49
119 76 15 15 -14 -2 -62 -36 -69 -49 -61 -23 8 28 34 25 68 44 76 41 10 -4 13
7 13 44 0 28 -3 50 -7 50 -5 0 -24 -14 -43 -31 -34 -30 -34 -30 -3 -10 50 34
52 24 3 -21 -39 -35 -40 -37 -8 -15 41 30 48 32 47 15 0 -11 -104 -86 -133
-97 -6 -2 3 12 19 30 17 19 20 25 7 15 -37 -32 -39 -8 -1 25 25 23 26 25 5 10
-33 -24 -46 -21 -25 6 9 11 10 14 2 9 -8 -4 -13 -2 -13 6 1 14 94 93 124 104
16 6 17 3 11 -17 -6 -19 -5 -22 6 -12 8 9 9 19 3 33 -9 20 -12 18 -72 -30 -34
-27 -64 -50 -66 -50 -2 0 -4 21 -3 46 1 41 4 48 46 82 87 71 85 70 79 45 -4
-13 -2 -23 3 -23 5 0 9 14 9 31 l0 31 -64 -51 c-35 -28 -66 -51 -69 -51 -10 0
-4 95 7 109 8 11 8 13 -1 7 -22 -12 -14 6 15 38 l27 31 -28 -24 -27 -25 2 30
c1 16 11 39 22 52 10 12 17 22 14 22 -3 0 -11 -7 -18 -15z"/>
<path fill="#03a655" d="M1249 2853 l-24 -28 28 24 c25 23 32 31 24 31 -2 0 -14 -12 -28 -27z"/>
<path fill="#03a655" d="M1314 2829 c-19 -22 -19 -22 4 -8 12 8 22 17 22 21 0 12 -6 9 -26
-13z"/>
<path fill="#03a655" d="M1244 2808 l-29 -33 33 29 c17 17 32 31 32 33 0 8 -8 1 -36 -29z"/>
<path fill="#03a655" d="M1269 2793 c-13 -16 -12 -17 4 -4 16 13 21 21 13 21 -2 0 -10 -8 -17
-17z"/>
<path fill="#03a655" d="M1229 2763 c-13 -16 -12 -17 4 -4 9 7 17 15 17 17 0 8 -8 3 -21 -13z"/>
<path fill="#03a655" d="M1289 2733 c-13 -16 -12 -17 4 -4 9 7 17 15 17 17 0 8 -8 3 -21 -13z"/>
<path fill="#03a655" d="M1325 2730 c-3 -5 -1 -10 4 -10 6 0 11 5 11 10 0 6 -2 10 -4 10 -3 0
-8 -4 -11 -10z"/>
<path fill="#03a655" d="M976 2690 c-47 -36 -57 -46 -31 -32 23 13 83 61 75 61 -3 0 -22 -13
-44 -29z"/>
<path fill="#03a655" d="M1244 2698 l-19 -23 23 19 c21 18 27 26 19 26 -2 0 -12 -10 -23 -22z"/>
<path fill="#03a655" d="M1289 2703 c-13 -16 -12 -17 4 -4 9 7 17 15 17 17 0 8 -8 3 -21 -13z"/>
<path fill="#03a655" d="M1239 2663 l-24 -28 28 24 c25 23 32 31 24 31 -2 0 -14 -12 -28 -27z"/>
<path fill="#03a655" d="M1299 2633 c-13 -16 -12 -17 4 -4 9 7 17 15 17 17 0 8 -8 3 -21 -13z"/>
<path fill="#03a655" d="M1249 2593 l-24 -28 28 24 c25 23 32 31 24 31 -2 0 -14 -12 -28 -27z"/>
<path fill="#03a655" d="M1041 2554 c0 -11 3 -14 6 -6 3 7 2 16 -1 19 -3 4 -6 -2 -5 -13z"/>
<path fill="#03a655" d="M1334 2489 c-3 -6 -1 -16 5 -22 8 -8 11 -5 11 11 0 24 -5 28 -16 11z"/>
<path fill="#03a655" d="M1243 2432 c-23 -15 -42 -31 -43 -35 0 -4 20 6 45 23 25 17 45 33 45
35 0 7 -2 6 -47 -23z"/>
<path fill="#03a655" d="M1268 2410 c-27 -17 -48 -32 -48 -35 0 -3 23 9 50 26 28 17 50 33 50
35 0 6 -2 5 -52 -26z"/>
<path fill="#03a655" d="M1290 2388 c-70 -47 -82 -65 -15 -22 33 21 62 40 64 41 2 2 2 5 0 7
-2 3 -24 -9 -49 -26z"/>
<path fill="#03a655" d="M385 2384 c-51 -34 -69 -52 -29 -29 35 20 82 54 74 55 -3 0 -23 -12
-45 -26z"/>
<path fill="#03a655" d="M2320 2360 c-25 -16 -41 -30 -37 -30 13 0 87 44 87 53 0 9 2 10 -50
-23z"/>
<path fill="#03a655" d="M1277 2344 c-31 -19 -57 -38 -57 -41 0 -3 15 5 33 17 17 12 44 27 60
33 15 6 27 15 27 19 0 11 0 11 -63 -28z"/>
<path fill="#03a655" d="M952 2299 c-50 -38 -92 -72 -92 -75 0 -2 39 25 87 61 86 65 135 89
77 37 -25 -22 -200 -160 -250 -197 -7 -5 -16 -6 -20 -2 -4 4 3 15 16 24 14 10
38 30 55 46 16 15 2 7 -33 -19 -34 -26 -65 -44 -69 -40 -4 3 2 13 13 20 10 8
30 24 44 36 14 12 3 7 -23 -11 -61 -42 -62 -44 -29 -57 52 -20 89 -24 103 -10
13 13 169 141 197 161 7 6 12 6 12 -1 0 -11 -157 -146 -180 -155 -11 -4 -9 -6
5 -6 11 0 30 10 43 24 38 40 122 108 122 98 0 -19 -35 -57 -78 -84 -49 -31
-50 -39 -3 -15 43 22 88 79 95 121 4 20 6 38 4 40 -2 2 -52 -37 -113 -86 -60
-48 -118 -88 -128 -89 -28 0 -16 11 116 111 152 115 141 104 130 122 -7 13
-25 3 -101 -54z"/>
<path fill="#03a655" d="M1197 2363 c-10 -9 -9 -253 1 -253 4 0 7 59 7 130 0 72 0 130 -1 130
0 0 -4 -3 -7 -7z"/>
<path fill="#03a655" d="M1270 2304 c-36 -24 -61 -44 -57 -44 5 0 81 46 126 77 2 2 2 5 0 7
-2 2 -33 -16 -69 -40z"/>
<path fill="#03a655" d="M2320 2320 c-19 -11 -30 -19 -25 -19 6 0 26 8 45 19 19 11 31 19 25
19 -5 0 -26 -8 -45 -19z"/>
<path fill="#03a655" d="M157 2302 c3 -14 -4 -22 -26 -32 -17 -7 -34 -17 -37 -22 -3 -5 12 0
34 11 48 25 64 12 25 -19 -16 -12 -21 -18 -13 -14 8 4 23 14 32 22 23 19 44 6
26 -16 -12 -16 -11 -16 7 -2 11 8 22 15 24 17 2 1 -8 8 -23 14 -15 7 -29 23
-32 36 -4 13 -10 23 -14 23 -5 0 -6 -8 -3 -18z"/>
<path fill="#03a655" d="M1335 2310 c-3 -5 -33 -24 -66 -41 -32 -18 -58 -34 -56 -36 2 -1 28
10 58 27 64 35 69 36 69 11 0 -12 -21 -31 -60 -55 -33 -21 -60 -40 -60 -43 0
-3 12 3 27 12 73 48 93 57 93 42 0 -8 -29 -31 -65 -52 -36 -21 -63 -40 -61
-43 3 -2 17 5 33 16 44 31 93 53 93 43 0 -5 -28 -27 -62 -48 l-63 -38 39 -3
c30 -3 44 2 60 19 l21 22 -28 -17 c-16 -9 -36 -16 -45 -14 -12 3 -4 11 25 26
53 28 56 28 51 -3 -3 -14 -1 -25 4 -25 5 0 8 47 7 105 -1 58 -3 105 -5 105 -1
0 -5 -4 -9 -10z"/>
<path fill="#03a655" d="M103 2289 c-35 -22 -46 -37 -15 -20 22 13 58 40 52 41 -3 0 -20 -10
-37 -21z"/>
<path fill="#03a655" d="M2318 2289 c-21 -11 -38 -22 -38 -24 0 -5 79 32 89 41 12 11 -18 1
-51 -17z"/>
<path fill="#03a655" d="M2328 2259 c-21 -11 -38 -22 -38 -24 0 -3 17 3 38 12 45 21 46 22 41
27 -2 2 -21 -5 -41 -15z"/>
<path fill="#03a655" d="M1294 2254 c-18 -14 -18 -15 4 -4 12 6 22 13 22 15 0 8 -5 6 -26 -11z"/>
<path fill="#03a655" d="M20 2251 c0 -15 54 -93 72 -102 13 -7 18 -7 14 0 -4 5 11 22 34 37
22 15 40 29 40 31 0 5 -15 -3 -52 -29 -31 -22 -52 -23 -45 -4 4 10 1 13 -7 10
-23 -9 -29 16 -10 32 18 14 18 14 -3 4 -24 -11 -31 -2 -13 16 6 6 3 10 -10 10
-11 0 -20 -2 -20 -5z"/>
<path fill="#03a655" d="M1244 2224 c-18 -14 -18 -15 4 -4 12 6 22 13 22 15 0 8 -5 6 -26 -11z"/>
<path fill="#03a655" d="M2350 2230 c-13 -8 -12 -10 3 -10 9 0 17 5 17 10 0 12 -1 12 -20 0z"/>
<path fill="#03a655" d="M2360 2140 c-13 -9 -13 -10 0 -11 8 -1 -1 -5 -20 -9 l-35 -7 33 -2
c21 -1 35 4 39 14 7 21 1 26 -17 15z"/>
<path fill="#03a655" d="M2145 1544 c-55 -8 -315 -44 -578 -79 -262 -35 -486 -69 -496 -75
-44 -23 -62 -61 -60 -125 l3 -60 -30 3 c-16 2 -181 26 -367 53 -185 27 -353
49 -372 49 -21 0 -44 -9 -60 -23 -26 -22 -29 -34 -95 -497 -62 -430 -67 -477
-55 -507 8 -18 24 -37 37 -43 22 -9 908 -140 948 -140 10 0 32 11 48 25 27 23
32 35 43 116 6 49 15 86 19 82 4 -4 13 -55 20 -113 7 -58 19 -120 27 -138 18
-39 58 -62 108 -62 70 0 1171 151 1202 165 46 20 68 60 66 115 -5 105 -155
1186 -169 1212 -18 34 -62 58 -106 57 -18 -1 -78 -8 -133 -15z m159 -106 c18
-83 154 -1164 148 -1170 -9 -9 -1103 -158 -1159 -158 -18 0 -33 3 -33 8 0 4
-34 261 -75 572 -42 311 -74 576 -73 590 l3 25 565 76 c311 42 577 77 592 78
21 1 29 -4 32 -21z m-1280 -318 c2 -3 19 -112 36 -243 l32 -238 -32 -222 c-17
-122 -35 -226 -40 -231 -10 -10 -889 111 -911 125 -8 5 7 133 52 445 34 242
66 448 70 460 7 21 9 20 397 -35 215 -31 393 -58 396 -61z"/>
<path fill="#03a655" d="M1636 1190 c-165 -66 -232 -290 -88 -290 46 0 61 14 95 90 26 60 54
80 111 80 19 0 45 -9 60 -21 21 -16 26 -29 26 -64 0 -39 -6 -50 -60 -109 -72
-80 -90 -113 -90 -166 0 -40 25 -79 53 -81 55 -5 107 29 107 71 0 11 32 54 71
97 115 126 133 192 82 294 -21 40 -40 61 -77 84 -43 26 -58 30 -145 32 -77 3
-106 -1 -145 -17z"/>
<path fill="#03a655" d="M1765 561 c-37 -16 -60 -51 -60 -93 0 -33 6 -45 33 -69 49 -44 119
-34 148 22 23 45 17 78 -20 115 -34 34 -61 41 -101 25z"/>
<path fill="#03a655" d="M557 1025 c-62 -22 -117 -84 -117 -133 0 -27 32 -52 67 -52 24 0 38
10 67 45 31 37 43 45 70 45 43 0 86 -34 86 -67 0 -29 -45 -75 -109 -113 -67
-39 -92 -108 -53 -143 31 -28 68 -21 97 18 15 19 56 50 91 70 81 45 114 91
114 158 0 58 -19 98 -63 131 -70 53 -171 70 -250 41z"/>
<path fill="#03a655" d="M532 517 c-29 -31 -28 -72 3 -102 30 -30 64 -32 99 -4 18 15 26 30
26 53 0 67 -83 101 -128 53z"/>
</g>
</svg>
