<?xml version="1.0" standalone="no"?>
<!DOCTYPE svg PUBLIC "-//W3C//DTD SVG 20010904//EN"
 "http://www.w3.org/TR/2001/REC-SVG-20010904/DTD/svg10.dtd">
<svg version="1.0" xmlns="http://www.w3.org/2000/svg"
 width="258.000000pt" height="300.000000pt" viewBox="0 130 258.000000 300.000000"
 preserveAspectRatio="xMidYMid meet">

<g transform="translate(0.000000,300.000000) scale(0.100000,-0.100000)"
fill="#000000" stroke="none">

<path fill="#03a655" d="M2145 1544 c-55 -8 -315 -44 -578 -79 -262 -35 -486 -69 -496 -75
-44 -23 -62 -61 -60 -125 l3 -60 -30 3 c-16 2 -181 26 -367 53 -185 27 -353
49 -372 49 -21 0 -44 -9 -60 -23 -26 -22 -29 -34 -95 -497 -62 -430 -67 -477
-55 -507 8 -18 24 -37 37 -43 22 -9 908 -140 948 -140 10 0 32 11 48 25 27 23
32 35 43 116 6 49 15 86 19 82 4 -4 13 -55 20 -113 7 -58 19 -120 27 -138 18
-39 58 -62 108 -62 70 0 1171 151 1202 165 46 20 68 60 66 115 -5 105 -155
1186 -169 1212 -18 34 -62 58 -106 57 -18 -1 -78 -8 -133 -15z m159 -106 c18
-83 154 -1164 148 -1170 -9 -9 -1103 -158 -1159 -158 -18 0 -33 3 -33 8 0 4
-34 261 -75 572 -42 311 -74 576 -73 590 l3 25 565 76 c311 42 577 77 592 78
21 1 29 -4 32 -21z m-1280 -318 c2 -3 19 -112 36 -243 l32 -238 -32 -222 c-17
-122 -35 -226 -40 -231 -10 -10 -889 111 -911 125 -8 5 7 133 52 445 34 242
66 448 70 460 7 21 9 20 397 -35 215 -31 393 -58 396 -61z"/>
<path fill="#03a655" d="M1636 1190 c-165 -66 -232 -290 -88 -290 46 0 61 14 95 90 26 60 54
80 111 80 19 0 45 -9 60 -21 21 -16 26 -29 26 -64 0 -39 -6 -50 -60 -109 -72
-80 -90 -113 -90 -166 0 -40 25 -79 53 -81 55 -5 107 29 107 71 0 11 32 54 71
97 115 126 133 192 82 294 -21 40 -40 61 -77 84 -43 26 -58 30 -145 32 -77 3
-106 -1 -145 -17z"/>
<path fill="#03a655" d="M1765 561 c-37 -16 -60 -51 -60 -93 0 -33 6 -45 33 -69 49 -44 119
-34 148 22 23 45 17 78 -20 115 -34 34 -61 41 -101 25z"/>
<path fill="#03a655" d="M557 1025 c-62 -22 -117 -84 -117 -133 0 -27 32 -52 67 -52 24 0 38
10 67 45 31 37 43 45 70 45 43 0 86 -34 86 -67 0 -29 -45 -75 -109 -113 -67
-39 -92 -108 -53 -143 31 -28 68 -21 97 18 15 19 56 50 91 70 81 45 114 91
114 158 0 58 -19 98 -63 131 -70 53 -171 70 -250 41z"/>
<path fill="#03a655" d="M532 517 c-29 -31 -28 -72 3 -102 30 -30 64 -32 99 -4 18 15 26 30
26 53 0 67 -83 101 -128 53z"/>
</g>
</svg>
